<svg width="36" height="36" viewBox="0 0 36 36" fill="none" xmlns="http://www.w3.org/2000/svg">
<path d="M10.4536 10.4536C10.5581 10.3488 10.6822 10.2657 10.8189 10.209C10.9556 10.1522 11.1021 10.123 11.2501 10.123C11.398 10.123 11.5446 10.1522 11.6812 10.209C11.8179 10.2657 11.9421 10.3488 12.0466 10.4536L18.0001 16.4093L23.9536 10.4536C24.0582 10.349 24.1823 10.266 24.319 10.2094C24.4557 10.1528 24.6021 10.1236 24.7501 10.1236C24.898 10.1236 25.0445 10.1528 25.1811 10.2094C25.3178 10.266 25.442 10.349 25.5466 10.4536C25.6512 10.5582 25.7341 10.6823 25.7907 10.819C25.8473 10.9557 25.8765 11.1021 25.8765 11.2501C25.8765 11.398 25.8473 11.5445 25.7907 11.6811C25.7341 11.8178 25.6512 11.942 25.5466 12.0466L19.5908 18.0001L25.5466 23.9536C25.6512 24.0582 25.7341 24.1823 25.7907 24.319C25.8473 24.4557 25.8765 24.6021 25.8765 24.7501C25.8765 24.898 25.8473 25.0445 25.7907 25.1811C25.7341 25.3178 25.6512 25.442 25.5466 25.5466C25.442 25.6512 25.3178 25.7341 25.1811 25.7907C25.0445 25.8473 24.898 25.8765 24.7501 25.8765C24.6021 25.8765 24.4557 25.8473 24.319 25.7907C24.1823 25.7341 24.0582 25.6512 23.9536 25.5466L18.0001 19.5908L12.0466 25.5466C11.942 25.6512 11.8178 25.7341 11.6811 25.7907C11.5445 25.8473 11.398 25.8765 11.2501 25.8765C11.1021 25.8765 10.9557 25.8473 10.819 25.7907C10.6823 25.7341 10.5582 25.6512 10.4536 25.5466C10.349 25.442 10.266 25.3178 10.2094 25.1811C10.1528 25.0445 10.1236 24.898 10.1236 24.7501C10.1236 24.6021 10.1528 24.4557 10.2094 24.319C10.266 24.1823 10.349 24.0582 10.4536 23.9536L16.4093 18.0001L10.4536 12.0466C10.3488 11.9421 10.2657 11.8179 10.209 11.6812C10.1522 11.5446 10.123 11.398 10.123 11.2501C10.123 11.1021 10.1522 10.9556 10.209 10.8189C10.2657 10.6822 10.3488 10.5581 10.4536 10.4536Z" fill="black"/>
</svg>
