<svg width="20" height="29" viewBox="0 0 20 29" fill="none" xmlns="http://www.w3.org/2000/svg">
<path fill-rule="evenodd" clip-rule="evenodd" d="M1.94121 12.2815C2.01548 12.0671 2.14535 11.9042 2.30235 11.8284C2.45934 11.7526 2.63065 11.7702 2.77871 11.8773L9.99996 17.11L17.22 11.8755C17.2934 11.8211 17.3736 11.7883 17.4558 11.779C17.538 11.7698 17.6207 11.7842 17.6991 11.8215C17.7775 11.8587 17.85 11.9181 17.9125 11.9962C17.9749 12.0744 18.0261 12.1696 18.0631 12.2765C18.1 12.3835 18.122 12.4999 18.1278 12.6193C18.1335 12.7386 18.1229 12.8583 18.0966 12.9717C18.0703 13.085 18.0288 13.1897 17.9744 13.2797C17.9201 13.3697 17.854 13.4431 17.78 13.4959L10.28 18.9334C10.1931 18.9965 10.0972 19.0294 9.99996 19.0294C9.90275 19.0294 9.80688 18.9965 9.71996 18.9334L2.21996 13.4959C2.0721 13.3882 1.95973 13.1999 1.90747 12.9722C1.85522 12.7446 1.86735 12.4962 1.94121 12.2815Z" fill="#343434"/>
</svg>
