<svg width="20" height="20" viewBox="0 0 20 20" fill="none" xmlns="http://www.w3.org/2000/svg">
<path d="M14.1071 2.53571C15.1301 2.53571 16.1112 2.94209 16.8346 3.66545C17.5579 4.3888 17.9643 5.36988 17.9643 6.39286V14.1071C17.9643 15.1301 17.5579 16.1112 16.8346 16.8346C16.1112 17.5579 15.1301 17.9643 14.1071 17.9643H6.39286C5.36988 17.9643 4.3888 17.5579 3.66545 16.8346C2.94209 16.1112 2.53571 15.1301 2.53571 14.1071V6.39286C2.53571 5.36988 2.94209 4.3888 3.66545 3.66545C4.3888 2.94209 5.36988 2.53571 6.39286 2.53571H14.1071ZM6.39286 1.25C5.02889 1.25 3.72078 1.79184 2.75631 2.75631C1.79184 3.72078 1.25 5.02889 1.25 6.39286V14.1071C1.25 15.4711 1.79184 16.7792 2.75631 17.7437C3.72078 18.7082 5.02889 19.25 6.39286 19.25H14.1071C15.4711 19.25 16.7792 18.7082 17.7437 17.7437C18.7082 16.7792 19.25 15.4711 19.25 14.1071V6.39286C19.25 5.02889 18.7082 3.72078 17.7437 2.75631C16.7792 1.79184 15.4711 1.25 14.1071 1.25H6.39286Z" fill="black"/>
<g clip-path="url(#clip0_67_724)">
<path d="M19.2499 9.01911C19.2499 0.0741284 15.2202 1.89268 10.25 1.89268C5.27745 1.89381 0.85783 2.83881 1.24768 9.02023C1.89283 19.2498 5.10712 17.9641 8.84143 17.9651V11.637H6.55768V9.02023H8.84368V7.02336C8.84368 4.75423 10.1881 3.50098 12.2434 3.50098C13.2289 3.50098 14.2583 3.67761 14.2583 3.67761V5.90511H13.1232C12.0061 5.90511 11.6573 6.60373 11.6573 7.32036V9.01911H14.1526L13.7543 11.6359H11.6562V17.964C15.3928 18.6069 19.25 17.9641 19.2499 9.01911Z" fill="black"/>
</g>
<defs>
<clipPath id="clip0_67_724">
<rect width="18" height="18" fill="white" transform="translate(1.25 1.25)"/>
</clipPath>
</defs>
</svg>
