<svg width="25" height="49" viewBox="0 0 25 49" fill="none" xmlns="http://www.w3.org/2000/svg">
<path fill-rule="evenodd" clip-rule="evenodd" d="M1.74135 48.8019C1.00237 48.578 0.440724 48.1865 0.179568 47.7132C-0.0815894 47.2399 -0.0209455 46.7234 0.3482 46.2771L18.3842 24.5073L0.34195 2.74133C0.154412 2.51989 0.0413951 2.27825 0.00941572 2.03034C-0.0225636 1.78243 0.0271267 1.53315 0.155623 1.29687C0.284119 1.0606 0.48888 0.842006 0.758098 0.653693C1.02732 0.46538 1.35567 0.311077 1.72422 0.199673C2.09277 0.0882694 2.49424 0.0219718 2.90548 0.00460287C3.31671 -0.012766 3.72957 0.0191364 4.12027 0.0984723C4.51096 0.177808 4.87176 0.303008 5.18186 0.466852C5.49196 0.630697 5.74522 0.829946 5.92705 1.05311L24.669 23.6632C24.8867 23.9252 25 24.2142 25 24.5073C25 24.8004 24.8867 25.0894 24.669 25.3514L5.92705 47.9615C5.55588 48.4073 4.90681 48.746 4.12217 48.9036C3.33753 49.0611 2.48135 49.0245 1.74135 48.8019V48.8019Z" fill="#343434"/>
</svg>
