<svg width="25" height="49" viewBox="0 0 25 49" fill="none" xmlns="http://www.w3.org/2000/svg">
<path fill-rule="evenodd" clip-rule="evenodd" d="M23.2587 0.198142C23.9976 0.422032 24.5593 0.813544 24.8204 1.28684C25.0816 1.76013 25.0209 2.27657 24.6518 2.72294L6.6158 24.4927L24.658 46.2587C24.8456 46.4801 24.9586 46.7217 24.9906 46.9697C25.0226 47.2176 24.9729 47.4669 24.8444 47.7031C24.7159 47.9394 24.5111 48.158 24.2419 48.3463C23.9727 48.5346 23.6443 48.6889 23.2758 48.8003C22.9072 48.9117 22.5058 48.978 22.0945 48.9954C21.6833 49.0128 21.2704 48.9809 20.8797 48.9015C20.489 48.8222 20.1282 48.697 19.8181 48.5331C19.508 48.3693 19.2548 48.1701 19.0729 47.9469L0.331003 25.3368C0.113338 25.0748 0 24.7858 0 24.4927C0 24.1996 0.113338 23.9106 0.331003 23.6486L19.0729 1.03848C19.4441 0.592733 20.0932 0.253953 20.8778 0.0964246C21.6625 -0.0611039 22.5187 -0.0245247 23.2587 0.198142V0.198142Z" fill="#343434"/>
</svg>
